<?xml version="1.0" encoding="UTF-8"?>
<svg id="Layer_1" data-name="Layer 1" xmlns="http://www.w3.org/2000/svg" viewBox="0 0 269.76 429.7">
  <defs>
    <style>
      .cls-1 {
        fill: #000;
        stroke-width: 0px;
      }

      .cls-2 {
        fill: none;
        stroke: #000;
        stroke-miterlimit: 10;
        stroke-width: 8px;
      }
    </style>
  </defs>
  <g id="Layer0_0_FILL" data-name="Layer0 0 FILL">
    <path class="cls-1" d="M123.26,269.5l-5.2,1.4c-.2.07-.37.18-.5.35-.13.2-.17.4-.1.6.07.2.2.37.4.5l8.5,4.5,11.9-4.45-14.55-2.9c-.13-.03-.28-.03-.45,0M164.81,274.85l-9.45-4.25c-.83-.4-1.7-.6-2.6-.6-.9-.03-1.77.12-2.6.45l-35.75,13.4-7.2-1.95c-.53-.17-1.05-.12-1.55.15s-.83.63-1,1.1c-.07.3-.07.62,0,.95.03.13.08.27.15.4l5.9,7.15c.1.13.23.22.4.25.13.07.27.1.4.1,1.07-.13,3.57-.63,7.5-1.5,3.53-.83,7.98-1.9,13.35-3.2l-2.75,17.35c-.03.23.02.43.15.6.17.2.37.32.6.35.2.03.38,0,.55-.1l4.8-2.1c.27-.13.45-.33.55-.6l9.05-18.7c5.97-1.47,12.32-3.07,19.05-4.8.7-.17,1.22-.53,1.55-1.1.37-.57.47-1.17.3-1.8-.13-.33-.3-.62-.5-.85-.27-.3-.57-.53-.9-.7Z"/>
  </g>
  <g>
    <path class="cls-1" d="M111.1,354.99c.3.48.45,1.14.45,1.98,0,1.6-.38,2.84-1.14,3.72-1.48,1.8-3.57,3.46-6.27,4.98-2.7,1.52-5.59,2.28-8.67,2.28-4.2,0-7.46-1.14-9.78-3.42-2.32-2.28-3.48-5.4-3.48-9.36,0-2.76.58-5.33,1.74-7.71,1.16-2.38,2.77-4.27,4.83-5.67,2.06-1.4,4.39-2.1,6.99-2.1,2.32,0,4.18.69,5.58,2.07,1.4,1.38,2.1,3.25,2.1,5.61,0,2.76-.99,5.13-2.97,7.11-1.98,1.98-5.33,3.55-10.05,4.71,1,1.84,2.9,2.76,5.7,2.76,1.8,0,3.85-.63,6.15-1.89,2.3-1.26,4.29-2.91,5.97-4.95.48-.56,1.02-.84,1.62-.84.52,0,.93.24,1.23.72ZM91,348.15c-1.02,1.72-1.53,3.8-1.53,6.24v.12c2.36-.56,4.22-1.4,5.58-2.52,1.36-1.12,2.04-2.42,2.04-3.9,0-.76-.21-1.37-.63-1.83s-.99-.69-1.71-.69c-1.48,0-2.73.86-3.75,2.58Z"/>
    <path class="cls-1" d="M107.74,365.55c-.62-1.6-.93-4.16-.93-7.68,0-5.2.74-10.14,2.22-14.82.36-1.16.95-2.01,1.77-2.55.82-.54,1.97-.81,3.45-.81.8,0,1.36.1,1.68.3.32.2.48.58.48,1.14,0,.64-.3,2.08-.9,4.32-.4,1.6-.72,3-.96,4.2s-.44,2.68-.6,4.44c1.32-3.44,2.8-6.24,4.44-8.4,1.64-2.16,3.25-3.7,4.83-4.62,1.58-.92,3.03-1.38,4.35-1.38,2.6,0,3.9,1.3,3.9,3.9,0,.52-.18,1.78-.54,3.78-.32,1.6-.48,2.6-.48,3,0,1.4.5,2.1,1.5,2.1,1.12,0,2.56-.88,4.32-2.64.52-.52,1.06-.78,1.62-.78.52,0,.93.23,1.23.69.3.46.45,1.07.45,1.83,0,1.48-.4,2.64-1.2,3.48-1.12,1.16-2.43,2.15-3.93,2.97-1.5.82-3.09,1.23-4.77,1.23-2.12,0-3.73-.54-4.83-1.62-1.1-1.08-1.65-2.54-1.65-4.38,0-.6.06-1.2.18-1.8.08-.8.12-1.34.12-1.62,0-.64-.22-.96-.66-.96-.6,0-1.39.67-2.37,2.01-.98,1.34-1.95,3.11-2.91,5.31-.96,2.2-1.74,4.52-2.34,6.96-.44,1.88-.95,3.15-1.53,3.81-.58.66-1.49.99-2.73.99-1.52,0-2.59-.8-3.21-2.4Z"/>
    <path class="cls-1" d="M135.04,365.55c-.62-1.6-.93-4.16-.93-7.68,0-5.2.74-10.14,2.22-14.82.36-1.16.95-2.01,1.77-2.55.82-.54,1.97-.81,3.45-.81.8,0,1.36.1,1.68.3.32.2.48.58.48,1.14,0,.64-.3,2.08-.9,4.32-.4,1.6-.72,3-.96,4.2s-.44,2.68-.6,4.44c1.32-3.44,2.8-6.24,4.44-8.4,1.64-2.16,3.25-3.7,4.83-4.62,1.58-.92,3.03-1.38,4.35-1.38,2.6,0,3.9,1.3,3.9,3.9,0,1.56-.44,4.38-1.32,8.46-.76,3.48-1.14,5.78-1.14,6.9,0,1.6.58,2.4,1.74,2.4.8,0,1.75-.49,2.85-1.47,1.1-.98,2.57-2.57,4.41-4.77.48-.56,1.02-.84,1.62-.84.52,0,.93.24,1.23.72.3.48.45,1.14.45,1.98,0,1.6-.38,2.84-1.14,3.72-1.72,2.12-3.57,3.86-5.55,5.22-1.98,1.36-4.23,2.04-6.75,2.04-2.04,0-3.58-.59-4.62-1.77-1.04-1.18-1.56-2.89-1.56-5.13,0-1.12.28-3.12.84-6,.52-2.52.78-4.26.78-5.22,0-.64-.22-.96-.66-.96-.52,0-1.25.67-2.19,2.01-.94,1.34-1.9,3.11-2.88,5.31-.98,2.2-1.77,4.52-2.37,6.96-.44,1.88-.95,3.15-1.53,3.81-.58.66-1.49.99-2.73.99-1.52,0-2.59-.8-3.21-2.4Z"/>
    <path class="cls-1" d="M165.19,365.25c-1.48-1.8-2.22-4.16-2.22-7.08,0-3.2.74-6.23,2.22-9.09,1.48-2.86,3.45-5.16,5.91-6.9,2.46-1.74,5.07-2.61,7.83-2.61.88,0,1.47.17,1.77.51.3.34.55.95.75,1.83.84-.16,1.72-.24,2.64-.24,1.96,0,2.94.7,2.94,2.1,0,.84-.3,2.84-.9,6-.92,4.6-1.38,7.8-1.38,9.6,0,.6.15,1.08.45,1.44.3.36.69.54,1.17.54.76,0,1.68-.49,2.76-1.47s2.54-2.57,4.38-4.77c.48-.56,1.02-.84,1.62-.84.52,0,.93.24,1.23.72.3.48.45,1.14.45,1.98,0,1.6-.38,2.84-1.14,3.72-1.64,2.04-3.38,3.76-5.22,5.16-1.84,1.4-3.62,2.1-5.34,2.1-1.32,0-2.53-.45-3.63-1.35-1.1-.9-1.93-2.13-2.49-3.69-2.08,3.36-4.7,5.04-7.86,5.04-2.48,0-4.46-.9-5.94-2.7ZM175.81,360.33c.8-1.04,1.38-2.42,1.74-4.14l2.22-11.04c-1.68.04-3.23.67-4.65,1.89-1.42,1.22-2.55,2.83-3.39,4.83-.84,2-1.26,4.12-1.26,6.36,0,1.24.25,2.16.75,2.76.5.6,1.19.9,2.07.9s1.72-.52,2.52-1.56Z"/>
    <path class="cls-1" d="M193.66,365.19c-1.18-1.84-1.77-4.28-1.77-7.32,0-1.8.23-4.11.69-6.93s1.05-5.45,1.77-7.89c.36-1.28.84-2.16,1.44-2.64.6-.48,1.56-.72,2.88-.72,2.04,0,3.06.68,3.06,2.04,0,1-.38,3.32-1.14,6.96-.96,4.4-1.44,7.38-1.44,8.94,0,1.2.16,2.12.48,2.76s.86.96,1.62.96c.72,0,1.62-.5,2.7-1.5s2.52-2.58,4.32-4.74c.48-.56,1.02-.84,1.62-.84.52,0,.93.24,1.23.72.3.48.45,1.14.45,1.98,0,1.6-.38,2.84-1.14,3.72-3.96,4.84-7.66,7.26-11.1,7.26-2.6,0-4.49-.92-5.67-2.76ZM196.03,334.56c-.84-.78-1.26-1.87-1.26-3.27s.55-2.57,1.65-3.51c1.1-.94,2.47-1.41,4.11-1.41,1.48,0,2.68.36,3.6,1.08.92.72,1.38,1.74,1.38,3.06,0,1.6-.52,2.87-1.56,3.81-1.04.94-2.42,1.41-4.14,1.41s-2.94-.39-3.78-1.17Z"/>
  </g>
  <polyline class="cls-2" points=".82 331.48 44.37 322.37 52.24 383.37 23.35 373.37 73.41 305.61 104.61 293.82"/>
</svg>