<?xml version="1.0" encoding="UTF-8"?>
<svg id="uuid-2d649673-9bc0-483b-a735-188758f22e84" data-name="comp-logo-solo" xmlns="http://www.w3.org/2000/svg" viewBox="0 0 107.1 96.35">
  <g id="uuid-3e9ef3f7-3f4f-461d-86dd-08abc9fdfa89" data-name="solo">
    <g>
      <path d="M56.3,47.6c-.4-.57-.8-1.1-1.2-1.6-1.87,9.2-3.17,16.85-3.9,22.95-.77,6.1-1.05,10.82-.85,14.15.13,2.9,1.22,5.67,3.25,8.3.73.63,2.87.8,6.4.5,2.63-.6,4.42-1.47,5.35-2.6.9-1.2,1.42-2.3,1.55-3.3-1.17.5-2.67.42-4.5-.25-1.87-.7-2.5-3.65-1.9-8.85.57-5.23,1.32-10.8,2.25-16.7-2.07-4.83-4.22-9.03-6.45-12.6M97.85.65c-.67.27-1.42.58-2.25.95h-.05c-1.37.57-2.7,1.13-4,1.7-7.1,3-12.75,5.53-16.95,7.6h.05c-1.4.67-2.62,1.28-3.65,1.85-.03,0-.07.02-.1.05-.7.33-1.42.78-2.15,1.35h.05c-2.18,1.55-4.23,4.19-6.15,7.9-.02.03-.03.07-.05.1-1.25,2.35-2.42,5.18-3.5,8.5-.4,1.17-.78,2.38-1.15,3.65,2.27,2.1,4.47,4.63,6.6,7.6.03.07.08.15.15.25.37.57.73,1.15,1.1,1.75.87-3.73,1.8-7.1,2.8-10.1v-.05c.9-2.77,1.87-5.1,2.9-7v-.05c1.07-2.13,2.18-3.67,3.35-4.6.13-.1.25-.18.35-.25l.4-.2c.9-.5,2.02-1.07,3.35-1.7l.05-.05c5.07-2.47,12.38-5.72,21.95-9.75,1.9-.8,3.48-1.48,4.75-2.05.5-.23.97-.43,1.4-.6l-7.8-7.5c-.4.17-.88.38-1.45.65" style="fill: #27374d; stroke-width: 0px;"/>
      <path d="M30.75,28.45s-.07.05-.1.05L0,40.55l7.9,7.65,26.4-10.4c3.5-1.23,6.82-1.35,9.95-.35,3.83,1.37,7.45,4.22,10.85,8.55.4.5.8,1.03,1.2,1.6,2.23,3.57,4.38,7.77,6.45,12.6,1.2,2.87,2.22,6.07,3.05,9.6,1.1,4.67,1.53,9.02,1.3,13.05.1,1.17.03,2.22-.2,3.15-.13,1-.65,2.1-1.55,3.3-.93,1.13-2.72,2-5.35,2.6-3.53.3-5.67.13-6.4-.5l-.1-.05c.07.07.13.12.2.15,2.73,2.53,5.03,3.98,6.9,4.35,1.9.33,3.05.5,3.45.5,2.57,0,4.78-.63,6.65-1.9.03,0,.07-.02.1-.05.8-.53,1.52-1.13,2.15-1.8,4.2-3.93,5.68-9.8,4.45-17.6-1.3-7.83-2.78-13.9-4.45-18.2s-4.05-8.6-7.15-12.9c-.37-.6-.73-1.18-1.1-1.75-.07-.1-.12-.18-.15-.25-2.13-2.97-4.33-5.5-6.6-7.6-3.37-3.07-6.88-5.18-10.55-6.35-5.23-1.8-10.78-1.63-16.65.5" style="fill: #526d82; stroke-width: 0px;"/>
    </g>
  </g>
</svg>