<?xml version="1.0" encoding="UTF-8"?>
<svg id="uuid-f90edb85-ab99-4b6a-bdf2-89802c3bad8e" data-name="Layer 1" xmlns="http://www.w3.org/2000/svg" viewBox="0 0 255.39 128.46">
  <path d="M109.55,26.62l-3,1.2c-8.43,3.38-15.83,6.3-22,8.67-5.43,2.08-9.51,4.9-12.1,8.38-1.01,1.36-3.23,5.97-6.62,21.49-1.13,5.2-2.33,11.33-3.57,18.23-2.43,13.52-.58,20.05-.14,21.1,1.16,4.72,8.08,3.31,8.08,3.31-1.23,2.77-4.63,4.15-9.34,4.68,0,0-3.79-.88-6.08-5.12-.91-1.68-3.09-8.78-.39-25.39,1.25-6.99,2.47-13.22,3.63-18.52,3.83-17.5,6.42-22.4,8.03-24.56,3.52-4.71,8.79-8.44,15.65-11.07,6.09-2.34,13.39-5.22,21.71-8.55.06-.02.12-.05.18-.07" style="fill: #27374d; stroke-width: 0px;"/>
  <path d="M0,61.77l.87-.37c.69-.29,1.38-.56,2.07-.82l1.63-.6c.23-.11.47-.21.72-.29,18.04-6.93,28.22-10.84,30.54-11.74,3.59-1.39,7.93-1.2,13.26.59,4.94,1.65,10.32,6.5,16.45,14.82.31.41.64.87.97,1.34,6.29,8.83,10.06,19.2,11.19,30.79.79,8.14-.27,13.4-3.33,16.53-3.59,3.92-12.53,1.81-13.52,1.66,6.64-1.07,8.94-2.04,9.62-8.27,0,0-.22-3.86-.73-9.15-.99-10.17-4.28-19.25-9.78-26.96-.3-.43-.57-.81-.84-1.17-6.3-8.57-10.31-11.26-12.57-12.01-3.4-1.14-6.11-1.39-7.84-.71-2.34.9-12.57,4.84-30.71,11.8-.01,0-.03,0-.04.01-.12.06-.24.11-.36.15l-1.48.54M8.44,66.97h0s0,0,0,0Z" style="fill: #526d82; stroke-width: 0px;"/>
  <g id="uuid-e5bb673a-bcab-4017-8d85-270b7af1c276" data-name="Layer1 1 FILL">
    <path d="M124.82,1.88c-.13,0-.27.02-.4.05l-5.1,1.8c-.2.1-.35.23-.45.4-.13.23-.15.43-.05.6.07.2.22.37.45.5l8.8,3.8,11.5-5.45-14.75-1.7M166.17,8.38c.7-.23,1.18-.65,1.45-1.25.33-.6.38-1.22.15-1.85-.13-.3-.32-.57-.55-.8-.3-.27-.62-.47-.95-.6l-9.8-3.5c-.87-.33-1.73-.45-2.6-.35-.9.03-1.75.25-2.55.65l-34.55,16.25-7.35-1.35c-.53-.1-1.03,0-1.5.3-.5.3-.82.68-.95,1.15-.03.33,0,.65.1.95.03.13.1.27.2.4l6.4,6.7c.13.1.28.17.45.2.13.07.27.08.4.05,1.07-.2,3.52-.9,7.35-2.1,3.43-1.13,7.78-2.57,13.05-4.3l-1.3,17.55c-.03.23.03.42.2.55.17.2.37.3.6.3.2.03.38-.02.55-.15l4.65-2.45c.23-.17.4-.38.5-.65l7.45-19.4c5.8-1.97,12-4.07,18.6-6.3Z" style="fill: #27374d; stroke-width: 0px;"/>
  </g>
  <g>
    <path d="M247.31,64.3c0-1.61-.54-2.82-1.65-3.69-1.13-.88-2.64-1.33-4.49-1.33-2.05,0-3.79.59-5.16,1.76-1.36,1.16-2.02,2.57-2.02,4.3s.5,3.04,1.52,3.99c.76.71,1.84,1.15,3.21,1.33.47.06.96.09,1.49.09,2.16,0,3.9-.59,5.18-1.75,1.29-1.16,1.92-2.71,1.92-4.71Z" style="fill: #526d82; stroke-width: 0px;"/>
    <path d="M255.39,99.08c0-1.02-.18-1.82-.52-2.38-.31-.49-.7-.72-1.22-.72-.65,0-1.23.31-1.78.95-2.4,2.88-4.35,5.02-5.8,6.36-1.55,1.43-2.84,2.13-3.94,2.13-1.2,0-2.1-.54-2.61-1.56-.47-.93-.69-2.21-.69-3.9,0-2.14.63-6.07,1.93-12.03,1-4.8,1.51-7.89,1.51-9.17,0-.95-.37-2.22-3.58-2.22-1.64,0-2.82.29-3.53.85-.71.57-1.3,1.67-1.75,3.27-.95,3.23-1.74,6.75-2.35,10.46-.51,3.13-.81,5.81-.89,7.99v.18s-.12.13-.12.13c-1.49,1.69-2.75,3.01-3.74,3.91-1.55,1.41-2.86,2.09-4.02,2.09-.79,0-1.45-.3-1.94-.9-.47-.57-.72-1.32-.72-2.24,0-2.43.62-6.77,1.85-12.9.79-4.16,1.19-6.82,1.19-7.9,0-.99-.35-2.3-3.42-2.3-1.19,0-2.34.1-3.43.31l-.47.09-.11-.47c-.31-1.35-.65-1.95-.89-2.22-.21-.23-.72-.51-1.99-.51-3.56,0-6.97,1.14-10.15,3.39-3.2,2.26-5.8,5.3-7.72,9.02-1.84,3.56-2.81,7.39-2.89,11.39v.19s-.13.14-.13.14c-1.08,1.18-2.03,2.13-2.81,2.83-1.57,1.4-2.93,2.09-4.13,2.09-1.29,0-2.82-.64-2.82-3.7,0-1.54.5-4.59,1.53-9.31,1.16-5.38,1.75-9.14,1.75-11.17,0-3.21-1.49-4.7-4.7-4.7-1.66,0-3.53.6-5.55,1.77-2.04,1.19-4.16,3.22-6.29,6.03-2.15,2.83-4.12,6.55-5.85,11.08l-1.29,3.36.33-3.58c.21-2.35.49-4.36.81-5.97.32-1.59.75-3.48,1.28-5.62.98-3.66,1.19-5.08,1.19-5.64s-.14-.93-.41-1.1c-.24-.15-.77-.32-1.97-.32-1.87,0-3.32.33-4.32,1-.99.65-1.71,1.7-2.16,3.13-1.04,3.3-1.82,6.81-2.31,10.43l-.03.21-.17.12c-1.41,1.04-2.61,1.54-3.69,1.54-1.14,0-2.5-.57-2.5-3.3,0-.57.21-1.92.65-4.1.47-2.62.71-4.28.71-4.94,0-3.21-1.49-4.7-4.7-4.7-1.66,0-3.53.6-5.55,1.77-2.04,1.19-4.16,3.22-6.29,6.03-2.15,2.83-4.12,6.55-5.85,11.08l-1.29,3.36.33-3.58c.21-2.35.49-4.36.81-5.97.32-1.59.75-3.48,1.28-5.62.98-3.66,1.19-5.08,1.19-5.64s-.14-.93-.41-1.1c-.24-.15-.77-.32-1.97-.32-1.87,0-3.32.33-4.32,1-.99.65-1.71,1.7-2.16,3.13-1.83,5.77-3,18.07-3.01,18.6v.2s-.15.14-.15.14c-1.84,1.83-3.93,3.39-6.19,4.63-3.13,1.71-5.97,2.58-8.44,2.58-3.91,0-6.62-1.33-8.04-3.94l-.31-.57.63-.15c6.17-1.52,10.6-3.58,13.17-6.15,2.53-2.53,3.81-5.6,3.81-9.13,0-2.99-.89-5.39-2.65-7.12-1.76-1.74-4.15-2.62-7.09-2.62-3.35,0-6.39.91-9.04,2.71-2.66,1.81-4.77,4.29-6.27,7.37-1.51,3.09-2.27,6.47-2.27,10.06,0,5.12,1.51,9.2,4.49,12.12,2.98,2.93,7.25,4.42,12.69,4.42,4,0,7.81-1,11.31-2.98,1.56-.88,2.99-1.82,4.28-2.8l.63-.48.16.77c.17.82.36,1.47.56,1.99.75,1.94,2,2.88,3.81,2.88,1.5,0,2.59-.39,3.27-1.15.71-.81,1.36-2.45,1.93-4.86.8-3.27,1.86-6.42,3.15-9.37,1.29-2.95,2.61-5.37,3.93-7.17,1.44-1.97,2.57-2.88,3.56-2.88.42,0,1.38.17,1.38,1.78,0,.39-.05,1.11-.16,2.21-.16.81-.24,1.59-.24,2.35,0,2.3.69,4.15,2.05,5.48,1.36,1.34,3.41,2.02,6.09,2.02,1.91,0,3.79-.45,5.58-1.33l.72-.35v.94c0,4.61.41,8,1.21,10.06.75,1.94,2,2.88,3.81,2.88,1.5,0,2.59-.39,3.26-1.15.71-.81,1.36-2.45,1.93-4.86.8-3.28,1.88-6.43,3.19-9.37,1.31-2.95,2.62-5.36,3.89-7.16,1.38-1.97,2.44-2.89,3.33-2.89.42,0,1.38.17,1.38,1.78,0,1.32-.34,3.63-1.05,7.06-.74,3.78-1.11,6.44-1.11,7.9,0,2.85.66,5.04,1.96,6.51,1.28,1.45,3.23,2.19,5.79,2.19,3.24,0,6.18-.89,8.72-2.63,1.01-.69,2.05-1.52,3.17-2.53l.46-.42.31.54c.36.63.71,1.16,1.09,1.62,1.89,2.3,4.35,3.42,7.53,3.42,4.01,0,7.39-2.18,10.06-6.48l.54-.88.35.98c.71,1.99,1.78,3.57,3.17,4.7,3.19,2.61,7.22,2.13,11.34-1.01,1.07-.81,2.12-1.73,3.23-2.8l.53-.51.28.68c.31.75.62,1.36.96,1.88,1.49,2.32,3.82,3.45,7.14,3.45,4.41,0,9.26-3.2,14.41-9.5.94-1.08,1.41-2.64,1.41-4.64ZM92.6,96.43v-.79c0-3.33.71-6.21,2.11-8.58,1.45-2.45,3.28-3.69,5.43-3.69,1.1,0,1.99.36,2.65,1.08.64.71.97,1.64.97,2.78,0,2.12-.98,4-2.9,5.59-1.86,1.54-4.44,2.7-7.64,3.46l-.62.15ZM211.02,98.14c-.49,2.36-1.31,4.28-2.41,5.72-1.16,1.51-2.43,2.28-3.76,2.28s-2.38-.46-3.14-1.38c-.74-.89-1.12-2.23-1.12-4,0-3.04.58-5.96,1.72-8.67,1.14-2.72,2.71-4.95,4.65-6.63,1.97-1.7,4.17-2.58,6.51-2.64h.62s-3.08,15.32-3.08,15.32Z" style="fill: #526d82; stroke-width: 0px;"/>
  </g>
</svg>