<?xml version="1.0" encoding="UTF-8"?>
<svg id="uuid-de69418f-6f49-4bc7-a634-4417d6963316" data-name="comp-title" xmlns="http://www.w3.org/2000/svg" viewBox="0 0 253.9 124.78">
  <g id="uuid-0a7dd489-3b07-45d6-ad7b-4c1ec9ffdf11" data-name="title">
    <g>
      <path d="M56.3,76.03c-.4-.57-.8-1.1-1.2-1.6-1.87,9.2-3.17,16.85-3.9,22.95-.77,6.1-1.05,10.82-.85,14.15.13,2.9,1.22,5.67,3.25,8.3.73.63,2.87.8,6.4.5,2.63-.6,4.42-1.47,5.35-2.6.9-1.2,1.42-2.3,1.55-3.3-1.17.5-2.67.42-4.5-.25-1.87-.7-2.5-3.65-1.9-8.85.57-5.23,1.32-10.8,2.25-16.7-2.07-4.83-4.22-9.03-6.45-12.6M97.85,29.08c-.67.27-1.42.58-2.25.95h-.05c-1.37.57-2.7,1.13-4,1.7-7.1,3-12.75,5.53-16.95,7.6h.05c-1.4.67-2.62,1.28-3.65,1.85-.03,0-.07.02-.1.05-.7.33-1.42.78-2.15,1.35h.05c-2.18,1.55-4.23,4.19-6.15,7.9-.02.03-.03.07-.05.1-1.25,2.35-2.42,5.18-3.5,8.5-.4,1.17-.78,2.38-1.15,3.65,2.27,2.1,4.47,4.63,6.6,7.6.03.07.08.15.15.25.37.57.73,1.15,1.1,1.75.87-3.73,1.8-7.1,2.8-10.1v-.05c.9-2.77,1.87-5.1,2.9-7v-.05c1.07-2.13,2.18-3.67,3.35-4.6.13-.1.25-.18.35-.25l.4-.2c.9-.5,2.02-1.07,3.35-1.7l.05-.05c5.07-2.47,12.38-5.72,21.95-9.75,1.9-.8,3.48-1.48,4.75-2.05.5-.23.97-.43,1.4-.6l-7.8-7.5c-.4.17-.88.38-1.45.65M122,4.43l-.5.1-6.25,2.6c-.23.13-.4.32-.5.55-.17.23-.17.48,0,.75.03.2.22.38.55.55l11.3,4.15,13.9-7.6-18.5-1.1M174.05,9.63c.8-.33,1.37-.9,1.7-1.7.4-.87.42-1.63.05-2.3-.2-.4-.45-.72-.75-.95-.33-.33-.72-.57-1.15-.7l-12.5-3.65C160.3,0,159.2-.08,158.1.08c-1.03.03-2.07.35-3.1.95l-41.95,22.75-9.3-1.2c-.67-.1-1.28.07-1.85.5-.63.47-1,.97-1.1,1.5,0,.4.07.8.2,1.2l.3.45,8.4,7.9.65.25h.45c1.3-.3,4.32-1.33,9.05-3.1,5.33-2.17,10.65-4.27,15.95-6.3l-.35,22c-.1.27-.02.48.25.65.23.27.5.38.8.35.2,0,.43-.08.7-.25l5.6-3.35c.33-.37.52-.65.55-.85l7.95-24.75,22.75-9.15Z" style="fill: #27374d; stroke-width: 0px;"/>
      <path d="M30.75,56.88s-.07.05-.1.05L0,68.98l7.9,7.65,26.4-10.4c3.5-1.23,6.82-1.35,9.95-.35,3.83,1.37,7.45,4.22,10.85,8.55.4.5.8,1.03,1.2,1.6,2.23,3.57,4.38,7.77,6.45,12.6,1.2,2.87,2.22,6.07,3.05,9.6,1.1,4.67,1.53,9.02,1.3,13.05.1,1.17.03,2.22-.2,3.15-.13,1-.65,2.1-1.55,3.3-.93,1.13-2.72,2-5.35,2.6-3.53.3-5.67.13-6.4-.5l-.1-.05c.07.07.13.12.2.15,2.73,2.53,5.03,3.98,6.9,4.35,1.9.33,3.05.5,3.45.5,2.57,0,4.78-.63,6.65-1.9.03,0,.07-.02.1-.05.8-.53,1.52-1.13,2.15-1.8,4.2-3.93,5.68-9.8,4.45-17.6-1.3-7.83-2.78-13.9-4.45-18.2s-4.05-8.6-7.15-12.9c-.37-.6-.73-1.18-1.1-1.75-.07-.1-.12-.18-.15-.25-2.13-2.97-4.33-5.5-6.6-7.6-3.37-3.07-6.88-5.18-10.55-6.35-5.23-1.8-10.78-1.63-16.65.5M183.45,89.98c0-3.13-1.57-4.7-4.7-4.7-1.63,0-3.48.6-5.55,1.8-1.97,1.1-4.07,3.1-6.3,6-2.13,2.87-4.08,6.57-5.85,11.1l-1.25,3.35.3-3.6c.17-2.07.43-4.05.8-5.95.57-2.57,1-4.43,1.3-5.6.8-2.97,1.2-4.85,1.2-5.65,0-.57-.13-.93-.4-1.1-.4-.23-1.07-.35-2-.35-1.83,0-3.27.33-4.3,1-.97.63-1.68,1.68-2.15,3.15-1.07,3.37-1.85,6.85-2.35,10.45v.2l-.2.1c-1.37,1.03-2.58,1.55-3.65,1.55-1.67,0-2.5-1.1-2.5-3.3,0-.6.22-1.97.65-4.1.47-2.7.7-4.35.7-4.95,0-3.13-1.57-4.7-4.7-4.7-1.7,0-3.55.6-5.55,1.8-1.97,1.1-4.07,3.1-6.3,6-2.13,2.87-4.08,6.57-5.85,11.1l-1.3,3.35.35-3.6c.17-2.07.43-4.05.8-5.95.27-1.5.7-3.37,1.3-5.6.77-3,1.15-4.88,1.15-5.65,0-.6-.13-.97-.4-1.1-.4-.23-1.05-.35-1.95-.35-1.87,0-3.32.33-4.35,1-1,.67-1.72,1.72-2.15,3.15-1.2,3.83-2.2,10.03-3,18.6v.2l-.15.15c-1.97,1.9-4.03,3.43-6.2,4.6-3.07,1.73-5.88,2.6-8.45,2.6-3.9,0-6.57-1.32-8-3.95l-.35-.55.65-.15c6.23-1.57,10.62-3.62,13.15-6.15,2.57-2.57,3.85-5.62,3.85-9.15,0-3-.88-5.37-2.65-7.1-1.8-1.77-4.17-2.65-7.1-2.65-3.33,0-6.35.92-9.05,2.75-2.67,1.83-4.75,4.28-6.25,7.35-1.53,3.07-2.3,6.42-2.3,10.05,0,5.17,1.5,9.22,4.5,12.15,3.03,2.93,7.27,4.4,12.7,4.4,4.03,0,7.8-1,11.3-3,1.53-.83,2.97-1.77,4.3-2.8l.6-.45.15.75c.2.8.4,1.47.6,2,.73,1.93,2,2.9,3.8,2.9,1.5,0,2.58-.38,3.25-1.15.7-.87,1.35-2.5,1.95-4.9.83-3.33,1.88-6.45,3.15-9.35,1.33-3,2.63-5.38,3.9-7.15,1.4-1.93,2.6-2.9,3.6-2.9.9,0,1.35.6,1.35,1.8l-.15,2.2c-.17.9-.25,1.68-.25,2.35,0,2.33.68,4.15,2.05,5.45,1.37,1.37,3.4,2.05,6.1,2.05,1.93,0,3.8-.45,5.6-1.35l.7-.35v.95c0,4.67.4,8.02,1.2,10.05.73,1.93,2,2.9,3.8,2.9,1.5,0,2.6-.38,3.3-1.15.7-.8,1.33-2.42,1.9-4.85.77-3.17,1.83-6.3,3.2-9.4,1.33-3,2.63-5.38,3.9-7.15,1.33-1.93,2.43-2.9,3.3-2.9.93,0,1.4.6,1.4,1.8,0,1.27-.35,3.62-1.05,7.05-.73,3.7-1.1,6.33-1.1,7.9,0,2.9.65,5.07,1.95,6.5,1.3,1.47,3.23,2.2,5.8,2.2,3.23,0,6.13-.88,8.7-2.65.87-.57,1.93-1.4,3.2-2.5l.45-.45.3.55c.3.57.67,1.12,1.1,1.65,1.87,2.27,4.37,3.4,7.5,3.4,4,0,7.37-2.17,10.1-6.5l.5-.85.35.95c.77,2.07,1.83,3.63,3.2,4.7,1.57,1.3,3.33,1.87,5.3,1.7,1.93-.2,3.95-1.1,6.05-2.7,1.13-.87,2.2-1.8,3.2-2.8l.55-.5.25.7c.4.83.73,1.45,1,1.85,1.43,2.3,3.8,3.45,7.1,3.45,4.47,0,9.28-3.17,14.45-9.5.93-1.1,1.4-2.65,1.4-4.65h-.05c0-1.07-.17-1.87-.5-2.4-.27-.47-.68-.7-1.25-.7-.63,0-1.22.32-1.75.95-2.47,2.93-4.4,5.05-5.8,6.35-1.53,1.43-2.85,2.15-3.95,2.15-1.23,0-2.1-.53-2.6-1.6-.47-.83-.7-2.13-.7-3.9,0-2.03.65-6.03,1.95-12,1-4.8,1.5-7.87,1.5-9.2,0-1.47-1.2-2.2-3.6-2.2-1.6,0-2.77.28-3.5.85-.7.5-1.28,1.58-1.75,3.25-1,3.37-1.78,6.87-2.35,10.5-.53,3.1-.83,5.75-.9,7.95v.2l-.15.15c-1.37,1.57-2.6,2.87-3.7,3.9-1.53,1.4-2.88,2.1-4.05,2.1-.8,0-1.45-.3-1.95-.9-.47-.63-.7-1.38-.7-2.25,0-2.57.62-6.87,1.85-12.9.8-4.13,1.2-6.77,1.2-7.9,0-1.53-1.15-2.3-3.45-2.3-1.17,0-2.3.1-3.4.3l-.5.1-.1-.5c-.23-1.1-.53-1.83-.9-2.2-.27-.33-.92-.5-1.95-.5-3.6,0-6.98,1.13-10.15,3.4-3.2,2.23-5.78,5.23-7.75,9-1.83,3.5-2.8,7.3-2.9,11.4v.2l-.1.1c-1,1.1-1.93,2.05-2.8,2.85-1.6,1.4-2.98,2.1-4.15,2.1-1.87,0-2.8-1.23-2.8-3.7,0-1.5.5-4.6,1.5-9.3,1.17-5.47,1.75-9.2,1.75-11.2M211.95,91.58h.6l-3.05,15.3c-.5,2.43-1.3,4.33-2.4,5.7-1.2,1.53-2.45,2.3-3.75,2.3-1.37,0-2.42-.47-3.15-1.4-.77-.87-1.15-2.2-1.15-4,0-3.03.58-5.92,1.75-8.65,1.17-2.77,2.72-4.98,4.65-6.65,2-1.67,4.17-2.53,6.5-2.6M98.6,92.13c1.13,0,2.02.35,2.65,1.05.67.73,1,1.67,1,2.8,0,2.1-.97,3.97-2.9,5.6-1.9,1.57-4.45,2.72-7.65,3.45l-.65.15v-.8c0-3.27.72-6.13,2.15-8.6,1.43-2.43,3.23-3.65,5.4-3.65M243.85,77.73c1.3-1.13,1.95-2.7,1.95-4.7,0-1.57-.55-2.8-1.65-3.7-1.17-.87-2.67-1.3-4.5-1.3-2.07,0-3.78.58-5.15,1.75-1.37,1.13-2.05,2.57-2.05,4.3s.52,3.07,1.55,4c.77.73,1.83,1.17,3.2,1.3l1.5.1c2.17,0,3.88-.58,5.15-1.75Z" style="fill: #526d82; stroke-width: 0px;"/>
    </g>
  </g>
</svg>